{
  "accessors": [
    {
      "bufferView": 2,
      "componentType": 5126,
      "count": 65532,
      "max": [
        1.6221009492874146,
        1.7296719551086426,
        0.06623899936676025
      ],
      "min": [
        -3.0791420936584473,
        -3.264025926589966,
        -0.0473329983651638
      ],
      "type": "VEC3"
    },
    {
      "bufferView": 2,
      "byteOffset": 786384,
      "componentType": 5126,
      "count": 65532,
      "max": [
        0.998445451259613,
        0.9982749223709106,
        1.0
      ],
      "min": [
        -0.9976670742034912,
        -0.9990878701210022,
        -0.9972947835922241
      ],
      "type": "VEC3"
    },
    {
      "bufferView": 1,
      "componentType": 5126,
      "count": 65532,
      "max": [
        0.9987819790840149,
        0.9974009990692139
      ],
      "min": [
        0.0103150000795722,
        0.031252000480890274
      ],
      "type": "VEC2"
    },
    {
      "bufferView": 0,
      "componentType": 5125,
      "count": 352863,
      "type": "SCALAR"
    },
    {
      "bufferView": 2,
      "byteOffset": 1572768,
      "componentType": 5126,
      "count": 65532,
      "max": [
        2.601644992828369,
        3.2370851039886475,
        0.5456950068473816
      ],
      "min": [
        -3.464622974395752,
        -1.879120945930481,
        -0.15205499529838562
      ],
      "type": "VEC3"
    },
    {
      "bufferView": 2,
      "byteOffset": 2359152,
      "componentType": 5126,
      "count": 65532,
      "max": [
        0.9999860525131226,
        0.9997844099998474,
        1.0
      ],
      "min": [
        -0.9999995827674866,
        -0.9998319149017334,
        -0.9994964003562927
      ],
      "type": "VEC3"
    },
    {
      "bufferView": 1,
      "byteOffset": 524256,
      "componentType": 5126,
      "count": 65532,
      "max": [
        0.9994990229606628,
        0.9981099963188171
      ],
      "min": [
        0.0025160000659525394,
        0.0039519998244941235
      ],
      "type": "VEC2"
    },
    {
      "bufferView": 0,
      "byteOffset": 1411452,
      "componentType": 5125,
      "count": 342354,
      "type": "SCALAR"
    },
    {
      "bufferView": 2,
      "byteOffset": 3145536,
      "componentType": 5126,
      "count": 65532,
      "max": [
        2.6004750728607178,
        2.314687967300415,
        0.5358669757843018
      ],
      "min": [
        -0.11497800052165985,
        -2.620206117630005,
        -0.030760999768972397
      ],
      "type": "VEC3"
    },
    {
      "bufferView": 2,
      "byteOffset": 3931920,
      "componentType": 5126,
      "count": 65532,
      "max": [
        0.9866310954093933,
        0.9981853365898132,
        1.0
      ],
      "min": [
        -0.9999998807907104,
        -0.9992932081222534,
        -0.9707781076431274
      ],
      "type": "VEC3"
    },
    {
      "bufferView": 1,
      "byteOffset": 1048512,
      "componentType": 5126,
      "count": 65532,
      "max": [
        0.9824410080909729,
        0.9880009889602661
      ],
      "min": [
        0.030897000804543495,
        0.0026710000820457935
      ],
      "type": "VEC2"
    },
    {
      "bufferView": 0,
      "byteOffset": 2780868,
      "componentType": 5125,
      "count": 356802,
      "type": "SCALAR"
    },
    {
      "bufferView": 2,
      "byteOffset": 4718304,
      "componentType": 5126,
      "count": 65532,
      "max": [
        2.6024999618530273,
        3.0537900924682617,
        0.529699981212616
      ],
      "min": [
        -1.0129050016403198,
        -2.3933959007263184,
        -0.04974599927663803
      ],
      "type": "VEC3"
    },
    {
      "bufferView": 2,
      "byteOffset": 5504688,
      "componentType": 5126,
      "count": 65532,
      "max": [
        0.9995510578155518,
        0.9999346137046814,
        1.0
      ],
      "min": [
        -0.9999991655349731,
        -0.9996910095214844,
        -0.9999967217445374
      ],
      "type": "VEC3"
    },
    {
      "bufferView": 1,
      "byteOffset": 1572768,
      "componentType": 5126,
      "count": 65532,
      "max": [
        0.9999560117721558,
        0.9998000264167786
      ],
      "min": [
        0.0005189999938011169,
        0.0006430000066757202
      ],
      "type": "VEC2"
    },
    {
      "bufferView": 0,
      "byteOffset": 4208076,
      "componentType": 5125,
      "count": 284151,
      "type": "SCALAR"
    },
    {
      "bufferView": 2,
      "byteOffset": 6291072,
      "componentType": 5126,
      "count": 65532,
      "max": [
        2.6051089763641357,
        3.234591007232666,
        0.5286840200424194
      ],
      "min": [
        -1.2358640432357788,
        -2.1848909854888916,
        -0.1754480004310608
      ],
      "type": "VEC3"
    },
    {
      "bufferView": 2,
      "byteOffset": 7077456,
      "componentType": 5126,
      "count": 65532,
      "max": [
        0.9997657537460327,
        0.9999690055847168,
        0.9999999403953552
      ],
      "min": [
        -0.9999998211860657,
        -0.9998276233673096,
        -0.9999969601631165
      ],
      "type": "VEC3"
    },
    {
      "bufferView": 1,
      "byteOffset": 2097024,
      "componentType": 5126,
      "count": 65532,
      "max": [
        0.9999970197677612,
        0.9997379779815674
      ],
      "min": [
        0.0002629999944474548,
        0.0009919999865815043
      ],
      "type": "VEC2"
    },
    {
      "bufferView": 0,
      "byteOffset": 5344680,
      "componentType": 5125,
      "count": 283242,
      "type": "SCALAR"
    },
    {
      "bufferView": 2,
      "byteOffset": 7863840,
      "componentType": 5126,
      "count": 65532,
      "max": [
        0.7342960238456726,
        3.243757963180542,
        0.02422099933028221
      ],
      "min": [
        -3.3774290084838867,
        -1.8157700300216675,
        -0.15154199302196503
      ],
      "type": "VEC3"
    },
    {
      "bufferView": 2,
      "byteOffset": 8650224,
      "componentType": 5126,
      "count": 65532,
      "max": [
        0.9997936487197876,
        0.9998377561569214,
        1.0
      ],
      "min": [
        -0.9996885061264038,
        -0.9998092651367188,
        -0.999999463558197
      ],
      "type": "VEC3"
    },
    {
      "bufferView": 1,
      "byteOffset": 2621280,
      "componentType": 5126,
      "count": 65532,
      "max": [
        0.9996389746665955,
        0.9997990131378174
      ],
      "min": [
        0.00046300000394694507,
        0.00045900000259280205
      ],
      "type": "VEC2"
    },
    {
      "bufferView": 0,
      "byteOffset": 6477648,
      "componentType": 5125,
      "count": 316785,
      "type": "SCALAR"
    },
    {
      "bufferView": 2,
      "byteOffset": 9436608,
      "componentType": 5126,
      "count": 65532,
      "max": [
        1.4599909782409668,
        3.2521090507507324,
        0.050282999873161316
      ],
      "min": [
        -3.4435160160064697,
        -3.115978956222534,
        -0.2371930032968521
      ],
      "type": "VEC3"
    },
    {
      "bufferView": 2,
      "byteOffset": 10222992,
      "componentType": 5126,
      "count": 65532,
      "max": [
        0.999870777130127,
        0.999999463558197,
        0.9999999403953552
      ],
      "min": [
        -0.9998542666435242,
        -0.9999744296073914,
        -0.9999794363975525
      ],
      "type": "VEC3"
    },
    {
      "bufferView": 1,
      "byteOffset": 3145536,
      "componentType": 5126,
      "count": 65532,
      "max": [
        0.9990119934082031,
        0.9999009966850281
      ],
      "min": [
        0.0004349999944679439,
        0.0009430000209249556
      ],
      "type": "VEC2"
    },
    {
      "bufferView": 0,
      "byteOffset": 7744788,
      "componentType": 5125,
      "count": 281790,
      "type": "SCALAR"
    },
    {
      "bufferView": 2,
      "byteOffset": 11009376,
      "componentType": 5126,
      "count": 65532,
      "max": [
        2.609173059463501,
        3.239551067352295,
        0.5781469941139221
      ],
      "min": [
        -1.8153820037841797,
        -3.0837759971618652,
        -0.184470996260643
      ],
      "type": "VEC3"
    },
    {
      "bufferView": 2,
      "byteOffset": 11795760,
      "componentType": 5126,
      "count": 65532,
      "max": [
        0.9999988675117493,
        0.9999628663063049,
        1.0
      ],
      "min": [
        -0.9999999403953552,
        -0.9999961256980896,
        -0.9998456835746765
      ],
      "type": "VEC3"
    },
    {
      "bufferView": 1,
      "byteOffset": 3669792,
      "componentType": 5126,
      "count": 65532,
      "max": [
        1.0,
        1.0
      ],
      "min": [
        0.0004309999931138009,
        0.0005619999719783664
      ],
      "type": "VEC2"
    },
    {
      "bufferView": 0,
      "byteOffset": 8871948,
      "componentType": 5125,
      "count": 289758,
      "type": "SCALAR"
    },
    {
      "bufferView": 2,
      "byteOffset": 12582144,
      "componentType": 5126,
      "count": 65532,
      "max": [
        2.450000047683716,
        1.3141579627990723,
        0.05853699892759323
      ],
      "min": [
        -3.454986095428467,
        -3.323168992996216,
        -0.10024400055408478
      ],
      "type": "VEC3"
    },
    {
      "bufferView": 2,
      "byteOffset": 13368528,
      "componentType": 5126,
      "count": 65532,
      "max": [
        0.9998069405555725,
        0.9999117851257324,
        0.9999999403953552
      ],
      "min": [
        -0.999817430973053,
        -0.9998760223388672,
        -0.9999570846557617
      ],
      "type": "VEC3"
    },
    {
      "bufferView": 1,
      "byteOffset": 4194048,
      "componentType": 5126,
      "count": 65532,
      "max": [
        0.9999709725379944,
        0.9994180202484131
      ],
      "min": [
        0.0006719999946653843,
        0.0017709999810904264
      ],
      "type": "VEC2"
    },
    {
      "bufferView": 0,
      "byteOffset": 10030980,
      "componentType": 5125,
      "count": 320289,
      "type": "SCALAR"
    },
    {
      "bufferView": 2,
      "byteOffset": 14154912,
      "componentType": 5126,
      "count": 65532,
      "max": [
        2.6023130416870117,
        -1.6799670457839966,
        0.5749970078468323
      ],
      "min": [
        -2.711409091949463,
        -3.2743020057678223,
        -0.05751600116491318
      ],
      "type": "VEC3"
    },
    {
      "bufferView": 2,
      "byteOffset": 14941296,
      "componentType": 5126,
      "count": 65532,
      "max": [
        0.9999926686286926,
        0.9996823072433472,
        0.9999998807907104
      ],
      "min": [
        -0.9999995827674866,
        -0.999854564666748,
        -0.9999936819076538
      ],
      "type": "VEC3"
    },
    {
      "bufferView": 1,
      "byteOffset": 4718304,
      "componentType": 5126,
      "count": 65532,
      "max": [
        0.9996749758720398,
        0.9994720220565796
      ],
      "min": [
        0.00043200000072829425,
        8.600000001024455e-05
      ],
      "type": "VEC2"
    },
    {
      "bufferView": 0,
      "byteOffset": 11312136,
      "componentType": 5125,
      "count": 284658,
      "type": "SCALAR"
    },
    {
      "bufferView": 2,
      "byteOffset": 15727680,
      "componentType": 5126,
      "count": 37070,
      "max": [
        2.599769115447998,
        3.2391300201416016,
        0.5627539753913879
      ],
      "min": [
        -3.387155055999756,
        -3.2682390213012695,
        -0.20274600386619568
      ],
      "type": "VEC3"
    },
    {
      "bufferView": 2,
      "byteOffset": 16172520,
      "componentType": 5126,
      "count": 37070,
      "max": [
        0.9999532103538513,
        0.9998791813850403,
        1.0
      ],
      "min": [
        -0.9999971985816956,
        -0.9999497532844543,
        -0.999988317489624
      ],
      "type": "VEC3"
    },
    {
      "bufferView": 1,
      "byteOffset": 5242560,
      "componentType": 5126,
      "count": 37070,
      "max": [
        0.9995549917221069,
        0.9999399781227112
      ],
      "min": [
        0.0005530000198632479,
        0.0005760000203736126
      ],
      "type": "VEC2"
    },
    {
      "bufferView": 0,
      "byteOffset": 12450768,
      "componentType": 5125,
      "count": 84231,
      "type": "SCALAR"
    }
  ],
  "asset": {
    "extras": {
      "author": "joeshu (https://sketchfab.com/joeshu)",
      "license": "CC-BY-4.0 (http://creativecommons.org/licenses/by/4.0/)",
      "source": "https://sketchfab.com/3d-models/ground-plate04-scan-eb141918b3734e5bb2bafacd6e4fd106",
      "title": "Ground Plate04 Scan"
    },
    "generator": "Sketchfab-13.53.0",
    "version": "2.0"
  },
  "bufferViews": [
    {
      "buffer": 0,
      "byteLength": 12787692,
      "name": "floatBufferViews",
      "target": 34963
    },
    {
      "buffer": 0,
      "byteLength": 5539120,
      "byteOffset": 12787692,
      "byteStride": 8,
      "name": "floatBufferViews",
      "target": 34962
    },
    {
      "buffer": 0,
      "byteLength": 16617360,
      "byteOffset": 18326812,
      "byteStride": 12,
      "name": "floatBufferViews",
      "target": 34962
    }
  ],
  "buffers": [
    {
      "byteLength": 34944172,
      "uri": "scene.bin"
    }
  ],
  "images": [
    {
      "uri": "textures/mesh_baseColor.jpeg"
    }
  ],
  "materials": [
    {
      "doubleSided": true,
      "name": "mesh",
      "pbrMetallicRoughness": {
        "baseColorTexture": {
          "index": 0
        },
        "metallicFactor": 0.0
      }
    }
  ],
  "meshes": [
    {
      "name": "Object_0",
      "primitives": [
        {
          "attributes": {
            "NORMAL": 1,
            "POSITION": 0,
            "TEXCOORD_0": 2
          },
          "indices": 3,
          "material": 0,
          "mode": 4
        }
      ]
    },
    {
      "name": "Object_1",
      "primitives": [
        {
          "attributes": {
            "NORMAL": 5,
            "POSITION": 4,
            "TEXCOORD_0": 6
          },
          "indices": 7,
          "material": 0,
          "mode": 4
        }
      ]
    },
    {
      "name": "Object_2",
      "primitives": [
        {
          "attributes": {
            "NORMAL": 9,
            "POSITION": 8,
            "TEXCOORD_0": 10
          },
          "indices": 11,
          "material": 0,
          "mode": 4
        }
      ]
    },
    {
      "name": "Object_3",
      "primitives": [
        {
          "attributes": {
            "NORMAL": 13,
            "POSITION": 12,
            "TEXCOORD_0": 14
          },
          "indices": 15,
          "material": 0,
          "mode": 4
        }
      ]
    },
    {
      "name": "Object_4",
      "primitives": [
        {
          "attributes": {
            "NORMAL": 17,
            "POSITION": 16,
            "TEXCOORD_0": 18
          },
          "indices": 19,
          "material": 0,
          "mode": 4
        }
      ]
    },
    {
      "name": "Object_5",
      "primitives": [
        {
          "attributes": {
            "NORMAL": 21,
            "POSITION": 20,
            "TEXCOORD_0": 22
          },
          "indices": 23,
          "material": 0,
          "mode": 4
        }
      ]
    },
    {
      "name": "Object_6",
      "primitives": [
        {
          "attributes": {
            "NORMAL": 25,
            "POSITION": 24,
            "TEXCOORD_0": 26
          },
          "indices": 27,
          "material": 0,
          "mode": 4
        }
      ]
    },
    {
      "name": "Object_7",
      "primitives": [
        {
          "attributes": {
            "NORMAL": 29,
            "POSITION": 28,
            "TEXCOORD_0": 30
          },
          "indices": 31,
          "material": 0,
          "mode": 4
        }
      ]
    },
    {
      "name": "Object_8",
      "primitives": [
        {
          "attributes": {
            "NORMAL": 33,
            "POSITION": 32,
            "TEXCOORD_0": 34
          },
          "indices": 35,
          "material": 0,
          "mode": 4
        }
      ]
    },
    {
      "name": "Object_9",
      "primitives": [
        {
          "attributes": {
            "NORMAL": 37,
            "POSITION": 36,
            "TEXCOORD_0": 38
          },
          "indices": 39,
          "material": 0,
          "mode": 4
        }
      ]
    },
    {
      "name": "Object_10",
      "primitives": [
        {
          "attributes": {
            "NORMAL": 41,
            "POSITION": 40,
            "TEXCOORD_0": 42
          },
          "indices": 43,
          "material": 0,
          "mode": 4
        }
      ]
    }
  ],
  "nodes": [
    {
      "children": [
        1
      ],
      "matrix": [
        1.0,
        0.0,
        0.0,
        0.0,
        0.0,
        2.220446049250313e-16,
        -1.0,
        0.0,
        0.0,
        1.0,
        2.220446049250313e-16,
        0.0,
        0.0,
        0.0,
        0.0,
        1.0
      ],
      "name": "Sketchfab_model"
    },
    {
      "children": [
        2,
        3,
        4,
        5,
        6,
        7,
        8,
        9,
        10,
        11,
        12
      ],
      "name": "mesh_s.obj.cleaner.materialmerger.gles"
    },
    {
      "mesh": 0,
      "name": "Object_2"
    },
    {
      "mesh": 1,
      "name": "Object_3"
    },
    {
      "mesh": 2,
      "name": "Object_4"
    },
    {
      "mesh": 3,
      "name": "Object_5"
    },
    {
      "mesh": 4,
      "name": "Object_6"
    },
    {
      "mesh": 5,
      "name": "Object_7"
    },
    {
      "mesh": 6,
      "name": "Object_8"
    },
    {
      "mesh": 7,
      "name": "Object_9"
    },
    {
      "mesh": 8,
      "name": "Object_10"
    },
    {
      "mesh": 9,
      "name": "Object_11"
    },
    {
      "mesh": 10,
      "name": "Object_12"
    }
  ],
  "samplers": [
    {
      "magFilter": 9729,
      "minFilter": 9987,
      "wrapS": 10497,
      "wrapT": 10497
    }
  ],
  "scene": 0,
  "scenes": [
    {
      "name": "Sketchfab_Scene",
      "nodes": [
        0
      ]
    }
  ],
  "textures": [
    {
      "sampler": 0,
      "source": 0
    }
  ]
}
